<?xml version="1.0" encoding="UTF-8" standalone="no"?><svg width="244px" height="244px" viewBox="0 0 244 244" version="1.1" xmlns="http://www.w3.org/2000/svg" xmlns:xlink="http://www.w3.org/1999/xlink" xmlns:sketch="http://www.bohemiancoding.com/sketch/ns">        <title>JVHB_logo-blauw</title>    <desc>Created with Sketch.</desc>    <defs></defs>    <g id="Page-1" stroke="none" stroke-width="1" fill="none" fill-rule="evenodd" sketch:type="MSPage">        <g id="JVHB_logo-blauw" sketch:type="MSLayerGroup">            <path d="M244,122 C244,189.4 189.4,244 122,244 C54.6,244 0,189.4 0,122 C0,54.6 54.6,0 122,0 C189.4,0 244,54.6 244,122" id="Shape" fill="#FFFFFF" sketch:type="MSShapeGroup"></path>            <g id="Group" transform="translate(21.000000, 18.000000)" fill="#00AEEF" sketch:type="MSShapeGroup">                <path d="M144.9,193.8 C137.5,196.5 116.7,198.6 98.6,198.6 C87.3,198.6 74.4,196.2 68.1,195 C68,195 67.9,195 67.8,195.1 C67.7,195.2 67.7,195.3 67.7,195.4 C67.9,196.8 69.6,200 75,202.7 C81.1,205.8 89.8,207.3 100.8,207.3 L103.9,207.3 C113.1,207.1 123.4,205.3 132,202.4 C140.1,199.7 145.1,196.6 145.3,194.2 C145.3,194.1 145.3,194 145.2,193.9 C145.1,193.8 145,193.8 144.9,193.8" id="Shape"></path>                <path d="M121.8,77.1 C122.6,79.6 122.3,88.2 122.3,95.2 C120.8,98.9 117.8,103.9 116.9,103.4 C115.7,102.7 116.8,89.9 116.7,87.2 C116.6,84.5 113.4,82.3 113.3,82.8 C111.1,94.5 108.9,101.2 107,101.8 C104,102.6 107.4,77.1 113.3,77.4 C114.6,77.5 114.8,79.3 114.2,81.7 C119,79.8 116.9,74.3 113.2,74.3 C108.6,74.3 104.6,79.4 102.9,86.3 C101.4,87.2 100.1,87.6 99,87.6 C100.3,74.5 99.3,70.8 96.3,70.6 C91.7,70.3 91.7,84.3 94.8,88.3 C95.2,88.8 95.7,89.2 96.4,89.5 C95.5,97.3 93.1,104.6 92.2,103.3 C90.3,100.7 89.6,83.5 89.2,79.9 C88.7,76.1 85.3,75.9 85.3,75.9 C84.8,92.8 87.3,103.5 91.3,106.5 C95.4,109.5 98.2,95.3 98.7,90.4 C98.7,90.2 98.8,89.9 98.8,89.7 C99.9,89.6 101.2,89.1 102.5,88.1 C102.5,88.2 102.4,88.4 102.4,88.5 C100.3,101 103,105.1 105.7,105.7 C108.3,106.3 110.6,102.5 112.4,94.2 C112.1,101.3 112.7,104 114,105.7 C117.1,109.8 120.7,104.6 122.3,98.8 C122.3,101.1 122.5,102.9 122.7,104 C123.4,106.4 125.4,107.3 126.1,107.4 C126.1,94.4 130.2,82.3 131.9,81.6 C135.1,80.3 128.7,103.5 133.7,108.6 C139.4,114.4 145,97.4 142.4,95 C142.1,97.5 138.4,106.1 136.3,105.9 C134.9,105.8 136.5,91.3 136.9,83.5 C137.2,78.8 134.3,77.2 132,77.7 C129.9,78.2 127.6,83.7 126.1,90.2 C126.3,84.2 125.8,78 121.8,77.1 M95.9,85.8 C94,82.5 95.5,73 97.2,73.8 C98.3,74.3 97.3,82.5 96.8,86.9 C96.4,86.6 96.1,86.2 95.9,85.8" id="Shape"></path>                <path d="M195,71.7 C196.9,71.7 201.1,70.4 201.8,69.1 C198.1,69 192.7,69 187.2,69 C187.5,63.9 187.8,60.3 187.8,60.1 C186.8,59.9 184.6,62.4 184.2,65.3 C184.1,66 184,67.4 183.8,69.1 C175.4,69.3 167.6,69.5 167,69.6 C164.9,69.9 163.1,70.9 162.3,71.5 C162,71.7 165.2,71.6 165.3,71.6 C170.8,71.4 177.7,71.5 183.6,71.6 C183.2,76.8 182.8,83.8 182.8,88 L182.8,92.2 C181.7,97.1 178.1,105.8 174.8,104.8 C172.9,104.2 172.4,99.1 172.5,93.6 C180.5,95.5 181,81.1 177,77.5 C171.4,72.4 167.6,83.6 168.6,95.4 C168.7,96.3 168.7,97.2 168.8,98 C167.4,101.3 165.1,105.2 163.7,105 C162.3,104.9 163.9,91.4 164.3,83.6 C164.6,78.9 162.3,77.3 160.1,77.8 C157.3,78.4 153.8,88.1 152.7,96.8 C152.7,90.4 154,79.4 153.2,72.5 C152.7,67.8 151.8,66 148.6,65.2 C150.8,67.9 147.9,99.8 150.2,104.4 C151,106.5 152.6,107.2 153.6,107.5 L153.6,107.5 L153.6,107.5 C153.6,94.5 157.7,82.4 159.4,81.7 C162.6,80.4 156.2,102.7 161.2,107.7 C164.9,111.4 167.7,106.2 169.1,101 C169.6,103.8 170.8,106.1 173.9,107.8 C177.7,109.9 181.5,103.4 183,97.4 C184.2,115.1 189.3,121.9 196.3,111.9 C200.8,105.5 202,91.6 196.8,88.4 C198.5,97.2 193,111 190.8,110.8 C188.4,110.6 186.8,100.9 186.6,89.5 C186.5,83.5 186.7,76.9 186.9,71.5 C190.6,71.6 193.5,71.7 195,71.7 M175,78.9 C177,77.9 177.4,91.4 172.5,92.1 C172.8,85.8 173.9,79.5 175,78.9" id="Shape"></path>                <path d="M16.3,65.3 C15.9,62.4 13.7,59.9 12.7,60.1 C12.7,60.6 14,76.4 13.7,89.6 C13.5,101 11.9,110.6 9.5,110.9 C7.3,111.1 1.8,97.3 3.5,88.5 C-1.7,91.7 -0.4,105.6 4,112 C12.1,123.6 17.7,112.5 17.6,88 C17.7,81.3 16.7,68.1 16.3,65.3" id="Shape"></path>                <path d="M24.8,106.9 C27.4,107.5 29.6,103.7 31.5,95.5 C31.1,102.9 31.7,106 33,107.7 C35.4,110.7 39.4,106.7 40.9,100.8 C41.5,104.8 43.1,106.6 44.6,106.9 C47.2,107.5 49.5,103.5 51.4,95 C51.2,102.2 52,104.6 53.3,106.3 C55.7,109.3 63.8,110.2 63.8,82.3 L63.8,80.4 C65.8,81.3 67.2,81.9 67.2,81.9 C68,82.9 66.8,91.1 66.8,98.5 C66.8,105.6 68.7,108.1 70.8,108.8 C74.7,110.1 80.4,92.9 77.6,90.2 C77.2,93.5 73.3,103.5 71.4,104.4 C69.4,105.4 71.5,83.2 70.2,80.7 C69.5,79.4 66.2,77.9 63.7,76.7 C63.6,70.7 63,68.1 61.1,67.5 C57.1,66.1 54.6,75.7 61.6,79.4 L61.6,82.2 C61.6,99 57.2,104.5 56.2,103.8 C55,103.1 55.4,91.1 55.4,88.4 C55.3,85.7 52.3,83.3 52.3,83.8 C50.1,95.5 47.9,102.2 46,102.8 C43,103.6 46.4,78.1 52.3,78.4 C53.6,78.5 53.8,80.3 53.2,82.7 C58,80.8 55.9,75.3 52.2,75.3 C47.1,75.3 42.8,80.9 41.5,88.9 C40.9,92.5 40.7,95.5 40.8,97.9 C39.4,101.3 36.6,105.5 35.7,105 C34.5,104.3 36,91 35.9,88.3 C35.8,85.6 32.6,83.4 32.6,83.9 C30.4,95.6 28.2,102.3 26.3,102.9 C23.3,103.7 26.7,78.2 32.6,78.5 C33.9,78.6 34.1,80.4 33.5,82.8 C38.3,80.9 36.2,75.4 32.5,75.4 C27.4,75.4 23.3,81.2 22,89.2 C19.7,101.8 22.1,106.3 24.8,106.9 M60.9,75.1 C58,72 58.7,69.1 60.2,69.7 C61.4,70.2 61.6,72.5 61.6,75.7 C61.3,75.5 61.1,75.3 60.9,75.1" id="Shape"></path>                <path d="M175.2,127.5 C175.1,127.5 174.9,127.6 174.8,127.7 C174.7,127.8 174.8,128 174.9,128.1 C176.8,129.9 177.8,135.3 177.4,142.4 C177,149.5 175.5,157.4 173.1,163.3 C171.7,166.8 170.2,169.6 168.5,171.5 C166.7,173.6 164.7,174.7 162.7,174.7 L162.7,174.7 C161.9,174.7 158.9,174 155.5,172.6 C152.7,171.4 149,169.4 146.6,166.6 C153.9,164.4 159.1,157.2 160.5,150.7 C160.9,148.8 160.6,145.7 158.4,142.7 C157.2,141 155.7,139.9 154.4,139.8 C151.3,139.5 148,141.4 145.1,145.2 C144.1,146.5 143.2,148 142.5,149.6 C143,143.3 143.6,138.1 144.5,133.9 C148.3,134.4 152,134.4 155.3,133.9 C159.2,133.3 162.3,132 164.5,130.3 C166.3,128.8 167.3,127 167.2,125.2 C167.2,123.2 166.3,116.7 156.6,116.2 C151.1,115.9 146.6,117.5 143.1,120.8 C141.9,122 140.7,123.4 139.7,125 C136.8,123.8 134,122.3 131.3,120.7 C125.9,117.7 120.3,114.7 114.5,114.3 C109.2,114 104.5,114.5 100.4,115.9 C97,117.1 94,118.8 91.6,121.1 C86.9,125.6 85.7,130.9 85.7,133.3 C85.7,133.4 85.8,133.6 85.9,133.6 L86,133.6 C86.1,133.6 86.2,133.6 86.2,133.5 C90.3,129.8 96.1,127.8 104.4,127.1 C111.5,126.5 127.1,129.9 136.6,131.9 C134.7,137.9 133.8,145.5 133.8,154.6 L133.8,162.5 C133.8,168.4 133.7,172.3 134.1,177.6 C134.3,181.4 137.3,185.7 139.8,187.6 C140.8,188.3 141.7,188.7 142.5,188.7 C142.7,188.7 142.9,188.7 143.1,188.6 C143.3,188.6 143.4,188.4 143.4,188.2 C143.1,186.6 142.2,178.8 141.9,169.2 C143.4,171.3 145.6,173.6 148.1,175.6 C150.7,177.7 155.7,181.3 160.7,181.6 L161.6,181.6 C164.5,181.6 167.5,180.7 170.4,178.8 C173.4,176.9 176.3,174.2 178.9,170.7 C184,163.9 187.6,155.2 188.4,147.4 C188.9,142.1 188.2,137.5 186.2,134.1 C184,130.6 180.3,128.2 175.2,127.5 M141.9,165.4 C142.2,162.1 142.9,158.8 143.9,155.8 C145.4,151.8 147.4,148.7 149.3,147.6 C149.8,147.3 150.3,147.2 150.7,147.2 C151.1,147.2 151.5,147.3 151.8,147.5 C152.4,147.9 152.7,148.6 152.6,149.5 C152.5,151.7 150.8,155.1 147.9,158.9 C146,161.5 143.8,163.9 141.9,165.4 M146.6,127.4 C148.5,123.4 151.1,121.2 155,120.5 C157.1,120.1 159.1,121 160.1,121.7 C160.8,122.2 161.2,122.8 161.2,123.3 C161.3,124 160.9,124.7 160.2,125.3 C158.5,127.1 153.9,128.5 146.6,127.4" id="Shape"></path>                <path d="M95,142.2 C96.9,141.1 98.9,140.9 101.3,141.6 C101.4,141.6 101.5,141.6 101.6,141.5 C101.7,141.4 101.7,141.3 101.7,141.2 C101.6,140.6 100.8,139.9 99.5,139.3 C98.1,138.6 96.3,138.2 94.6,138.2 C92.1,138.1 88.3,138.7 84.6,141.9 C80.8,145.3 78,150.7 76.3,158.2 C75,164 75.3,170.5 77.3,176.2 C79.2,181.7 82.4,185.7 86,187.1 C87.5,187.7 88.9,188 90.2,188 C92.3,188 94.1,187.2 95.7,185.8 C98.6,183 100.4,177.7 100.9,170.9 C101.3,164.7 100.5,157.9 98.7,152.7 C97.2,148.3 95.1,145.4 92.8,144.1 C93.4,143.3 94.2,142.7 95,142.2 M92.9,158.2 C93.4,167 92.9,174.4 91.5,178.2 C90.7,180.4 89.6,181.4 88.2,181.1 C86.3,180.7 84.2,172.8 86.4,161.2 C87.7,154.4 89.3,149.4 91.4,146.1 C91.6,146.7 91.7,147.5 91.9,148.5 C92.3,151.2 92.7,154.6 92.9,158.2" id="Shape"></path>                <path d="M68.7,161.5 C66.8,160 64.3,159.5 61.3,160 C67.8,155.6 72.7,150.4 75.5,144.9 C78,139.9 78.7,134.9 77.3,131.1 C74.2,122.4 67.1,117.2 57.3,116.6 C50.8,116.2 43.6,117.9 37.2,121.3 C30.6,124.8 25.4,129.9 22.6,135.5 C18.4,143.9 18.2,153 22.1,159.5 C25,164.2 29.7,166.9 35.5,166.9 L35.5,166.9 C35.7,166.9 35.8,166.8 35.8,166.6 C35.8,166.4 35.7,166.3 35.5,166.2 C33.9,165.9 31.6,163.6 30.5,159.5 C29.8,157.1 29.4,153.2 30.9,148.4 C32.4,143.7 35.4,139.2 40,135.1 C46.5,129.2 55.8,125.4 61.5,126.2 C63.6,126.5 65.2,127.4 66.1,128.9 C70.7,136.4 64.2,149.5 50.7,160.7 C50.8,159.2 51,157.6 51.1,156.1 C51.7,149.5 52.2,143.9 51.9,141.4 C51.6,139.2 49.6,137.1 48,135.8 C46.4,134.5 44.4,133.3 43.9,133.3 C43.7,133.3 43.5,133.5 43.5,133.7 C43.4,134.8 43.3,136.1 43.2,137.6 C42.6,146.2 41.5,160.5 42.4,171.9 C43.1,181 46,184.7 47.6,186.1 C48.5,186.9 49.4,187.2 49.8,187.2 L49.9,187.2 C50.2,187.2 50.2,186.9 50.2,186.5 L50.2,185.5 C50.2,184.7 50.2,183.5 50.1,182.2 C50,178.3 49.9,172.9 50,170.4 L50,169.7 C56.1,165.9 62.5,164.1 63.5,164.6 C65.7,165.7 65.4,170.5 62.8,176 C60.7,180.4 57.6,184.3 54.2,186.7 C51.4,188.7 46.9,190.6 41.8,188.3 C41.7,188.2 41.5,188.3 41.4,188.4 C41.3,188.5 41.3,188.6 41.3,188.8 C42,191 44,193 46.6,194.2 C48.3,195 50.1,195.4 51.9,195.4 C53.5,195.4 55.2,195.1 56.8,194.4 C60.1,193.1 70.9,187.7 72.1,173.6 C72.6,167.9 71.4,163.7 68.7,161.5" id="Shape"></path>                <path d="M124.2,165.2 C126.6,162.6 128.2,158.8 128.7,154.3 C129.1,150.5 128.8,147.3 128.5,145.9 C128.2,144.6 127,142.8 125.3,141.2 C123.5,139.5 121.6,138.6 120.2,138.7 C116.6,138.9 113.1,141.1 110.2,144.8 C107.1,148.9 105.1,154.3 104.4,160.7 C103.7,166.9 104.4,173.4 106.2,178.5 C108.4,184.6 112.2,188.2 117,188.9 C117.4,189 117.8,189 118.2,189 C121.5,189 124.5,186.9 126.9,183 C131.2,176 132.7,164.6 131,162.3 C130.9,162.2 130.8,162.1 130.7,162.2 C130.6,162.2 130.5,162.3 130.4,162.4 C128.1,170.1 121.6,180.3 117.8,182.1 C117.2,182.4 116.7,182.5 116.3,182.3 C115,181.8 113.5,177 113.3,170.2 C118.3,169.4 121.9,167.8 124.2,165.2 M114.3,158.3 C116.2,147 119.4,144 120.8,144 L120.8,144 C121.2,144 121.6,144.8 121.9,146 C122.3,148.4 122.1,152.8 120.4,157 C119.3,159.9 117.2,163.5 113.5,165.9 C113.6,163.5 113.8,160.9 114.3,158.3" id="Shape"></path>                <path d="M133.4,59.8 C136,62.5 139.9,64.1 143.8,64.1 L144.6,64.1 C148.5,63.9 152,62.2 154.3,59.3 C156.6,56.4 157.9,52.4 158.2,47.4 C158.4,44.5 158.1,41.8 157.5,39.3 C156.7,36 155.2,33.4 153.1,31.4 C150.4,28.9 146.6,27.5 142.9,27.7 C141.8,27.8 140.7,28 139.7,28.3 C139.7,28.2 139.8,28.1 139.8,27.9 C140.9,23.7 142.6,20.3 144.7,17.6 C147.3,14.4 150.6,12.4 154.1,11.7 L154,11.2 L153.9,10.7 C153.7,10.7 153,10.5 152.6,10.4 C152.2,10.3 151.9,10.2 151.6,10.1 C150.7,9.9 149.7,9.9 148.7,9.9 C146.7,10 144.6,10.4 142.8,11.2 C139.5,12.6 136.3,14 133.7,17.1 C130.3,21.1 128,26.6 127.1,33 C126.2,38.9 126.6,45.1 128.2,50.3 C129.2,54.1 131,57.4 133.4,59.8 M142.5,31.8 C143.7,32.3 144.8,33.7 145.8,35.6 C146.7,37.4 147.3,39.4 147.6,40.7 C148.3,44 148,47.7 146.9,50.7 L146.8,50.9 C146.4,52.1 145.4,55 144.2,55.4 C144,55.5 143.8,55.5 143.4,55.3 C139.6,52.8 139,47.5 138.6,43.2 C138.2,39.3 138.3,35.4 139,31.6 C139.2,31.6 139.4,31.5 139.6,31.5 C140.8,31.4 141.7,31.5 142.5,31.8" id="Shape"></path>                <path d="M91.6,64.4 C99.2,65.7 108.4,49.5 108.1,30.8 C107.9,17.9 102,2.3 88,5.8 C80.9,7.5 79,14.6 79.9,21.6 C77.2,24.3 73.9,29 73.2,36.5 C72.1,47.8 77.6,62 91.6,64.4 M89.5,36.9 C87.7,32 86.6,10.9 92,10.6 C97.9,10.2 99,46.2 90.5,56.4 C87.1,60.5 80.8,50.2 82.5,34.9 C82.7,33.3 82.7,31.8 82.7,30.5 C84.6,33.8 87,36.3 89.5,36.9" id="Shape"></path>                <path d="M41.5,69.4 C42.5,68.2 43.6,67.2 44.8,66.3 C45.3,66.3 45.8,66 46.4,65.8 C49.4,64.7 52.4,63.6 55.4,62.7 C61.5,60.8 67.9,59.5 74.3,59.9 C73.1,53.3 67.9,50.3 61.6,51.2 C57.3,51.8 53.2,53.2 49.4,55.3 C50.6,53.7 52.1,52.2 53.2,50.7 C57.1,45.9 61.2,41.3 65.5,36.8 C69.9,32.1 74,26.6 71.5,19.8 C71.1,18.6 70.4,17.4 69.7,16.3 C68.3,14.4 66.5,12.9 64.5,11.8 C61.9,10.4 58.6,9.5 55.6,9.7 C53.2,9.9 50.4,12.2 48.6,13.6 C46.4,15.3 44.4,17.3 42.6,19.5 C41.7,20.6 40.8,21.8 40.3,23.2 C39,26.9 40.8,30.9 42.6,34.4 C45.5,30.5 49.1,27.1 53.1,24.5 C55.6,22.8 58.6,21.3 61.6,21.4 C62.1,21.4 62.6,21.6 63,21.8 C63.5,22 63.9,22.4 64.4,22.6 C64.1,23.3 63.8,23.9 63.5,24.5 C61.6,27.8 42.4,48.8 40.8,51 C38.7,53.8 37.2,57.1 37.1,60.6 C37,64 38.6,67.6 41.5,69.4" id="Shape"></path>                <path d="M113.9,17 C112.4,31 109.9,49.7 112.4,56.6 C114.5,62.5 122.3,65 123.7,65.4 C123.3,63.3 121.8,49.7 122.5,35.7 C122.9,26.9 125,17 124.4,12.3 C123.6,5.7 118.7,1.6 114.2,0.6 L114.2,0.6 L114.2,0.6 C114.2,0.6 111.3,11.4 107.4,14.6 C109.6,16.5 111.9,17.1 113.9,17" id="Shape"></path>            </g>        </g>    </g></svg>