<svg id="Layer_1" data-name="Layer 1" xmlns="http://www.w3.org/2000/svg" viewBox="0 0 248.4 75.7"><defs><style>.cls-1{fill:#009fe3;}.cls-2{fill:#1d1d1b;}</style></defs><title>cpnblogo</title><path class="cls-1" d="M191,395.2c-0.6-2.1-1.5-3.8-3.9-3.8a3.3,3.3,0,0,0-3.3,3.2c0,4.7,9.1,2.8,9.1,9.4,0,3.3-2.4,5.3-5.6,5.3a6.2,6.2,0,0,1-6.4-5.3l1.9-.5a4.8,4.8,0,0,0,4.5,4.1,3.5,3.5,0,0,0,3.6-3.5c0-5.2-9.1-3-9.1-9.3a5.1,5.1,0,0,1,5.4-5.1c3,0,4.8,2.2,5.5,4.9Z" transform="translate(-181 -389.8)"/><path class="cls-1" d="M200.2,395.6h3v1.6h-3v8.3c0,1.3,0,2.1,1.5,2.1l1.5-.2v1.4a5.5,5.5,0,0,1-1.9.4c-3.2,0-3-2.1-3-4.6v-7.5h-2v-1.6h2v-4.3h1.9v4.3Z" transform="translate(-181 -389.8)"/><path class="cls-1" d="M209.9,392.2h-1.9v-2.1h1.9v2.1Zm0,16.6h-1.9V395.6h1.9v13.2Z" transform="translate(-181 -389.8)"/><path class="cls-1" d="M222.6,399.3c-0.5-1.2-1.2-2.5-2.7-2.5s-3.4,3.2-3.4,5.4,0.6,5.4,3.4,5.4,2.5-1.4,3.1-2.7l1.5,0.7a5.1,5.1,0,0,1-4.6,3.6c-3,0-5.3-2-5.3-7s2.4-7,5.3-7,3.5,1.4,4.2,3.4Z" transform="translate(-181 -389.8)"/><path class="cls-1" d="M230.3,397c1.1-.9,2.1-1.8,3.6-1.8s3.4,1,3.4,4.5v9.1h-1.9v-8.7c0-1.4.2-3.4-1.8-3.4a5.6,5.6,0,0,0-3.4,2v10.1h-1.9V390.2h1.9V397Z" transform="translate(-181 -389.8)"/><path class="cls-1" d="M245.6,395.6h3v1.6h-3v8.3c0,1.3,0,2.1,1.5,2.1l1.5-.2v1.4a5.5,5.5,0,0,1-1.9.4c-3.2,0-3-2.1-3-4.6v-7.5h-2v-1.6h2v-4.3h1.9v4.3Z" transform="translate(-181 -389.8)"/><path class="cls-1" d="M255.5,392.2h-1.9v-2.1h1.9v2.1Zm0,16.6h-1.9V395.6h1.9v13.2Z" transform="translate(-181 -389.8)"/><path class="cls-1" d="M263.3,408.8h-1.9V395.6h1.9V397c1.1-.9,2.1-1.8,3.6-1.8s3.4,1,3.4,4.5v9.1h-1.9v-8.7c0-1.4.2-3.4-1.8-3.4a5.6,5.6,0,0,0-3.4,2v10.1Z" transform="translate(-181 -389.8)"/><path class="cls-1" d="M286.4,396.8h-0.7a2.4,2.4,0,0,0-1.3.3,4.8,4.8,0,0,1,.8,2.7,4.4,4.4,0,0,1-4.5,4.6,5.8,5.8,0,0,1-2.1-.4,2.2,2.2,0,0,0-1.1,1.4c0,1.7,8.8-.4,8.8,4.6,0,1-.3,3.5-5.6,3.5s-5.7-1.7-5.7-3.3,1.2-2.1,2.3-2.6a2.2,2.2,0,0,1-1.7-1.8c0-1.2.9-1.5,1.7-2.4a4.7,4.7,0,0,1-1.5-3.5,4.5,4.5,0,0,1,4.7-4.6,4.8,4.8,0,0,1,2.9.9,4.3,4.3,0,0,1,3-1v1.7ZM279.3,408c-1,.2-2.5.8-2.5,2s2.7,1.9,4,1.9,3.7-.3,3.7-2.1-2.2-1.6-3.2-1.6Zm1.3-11.4a3,3,0,0,0-2.9,3.2,2.9,2.9,0,1,0,5.7,0C283.4,398.1,282.4,396.6,280.6,396.6Z" transform="translate(-181 -389.8)"/><path class="cls-2" d="M309.7,395.8c-0.5-2.2-1.5-4.4-4-4.4s-4.8,2.4-4.8,8.1,2.2,8.1,4.8,8.1,3.6-2.2,4-4.4l1.8,0.5c-0.5,3.1-2.5,5.6-5.9,5.6s-6.8-3.6-6.8-9.7,2.9-9.7,6.8-9.7,5.2,2.4,5.8,5.6Z" transform="translate(-181 -389.8)"/><path class="cls-1" d="M314.8,402.2c0-5,2.4-7,5.3-7s5.3,2,5.3,7-2.4,7-5.3,7S314.8,407.2,314.8,402.2Zm8.7,0c0-2.3-.6-5.4-3.4-5.4s-3.4,3.2-3.4,5.4,0.6,5.4,3.4,5.4S323.5,404.5,323.5,402.2Z" transform="translate(-181 -389.8)"/><path class="cls-1" d="M331.9,408.8H330V390.2h1.9v18.7Z" transform="translate(-181 -389.8)"/><path class="cls-1" d="M339.9,408.8h-1.9V390.2h1.9v18.7Z" transform="translate(-181 -389.8)"/><path class="cls-1" d="M347.1,402.5c0,3.8,1.6,5.1,3.5,5.1a4.1,4.1,0,0,0,3.2-2.3l1.3,0.9a5.1,5.1,0,0,1-4.8,3c-3,0-5.3-2-5.3-7s2.4-7,5.3-7,4.9,4.1,4.7,7.3h-8Zm6-1.6c0-1.7-.9-4.2-2.8-4.2s-3.1,2.3-3.1,4.2h6Z" transform="translate(-181 -389.8)"/><path class="cls-1" d="M367.2,399.3c-0.5-1.2-1.2-2.5-2.7-2.5s-3.4,3.2-3.4,5.4,0.6,5.4,3.4,5.4,2.5-1.4,3.1-2.7l1.5,0.7a5.1,5.1,0,0,1-4.6,3.6c-3,0-5.3-2-5.3-7s2.4-7,5.3-7,3.5,1.4,4.2,3.4Z" transform="translate(-181 -389.8)"/><path class="cls-1" d="M376,395.6h3v1.6h-3v8.3c0,1.3,0,2.1,1.5,2.1l1.5-.2v1.4a5.5,5.5,0,0,1-1.9.4c-3.2,0-3-2.1-3-4.6v-7.5h-2v-1.6h2v-4.3H376v4.3Z" transform="translate(-181 -389.8)"/><path class="cls-1" d="M386.3,392.2h-1.9v-2.1h1.9v2.1Zm0,16.6h-1.9V395.6h1.9v13.2Z" transform="translate(-181 -389.8)"/><path class="cls-1" d="M394.2,402.5c0,3.8,1.6,5.1,3.5,5.1a4.1,4.1,0,0,0,3.2-2.3l1.3,0.9a5.1,5.1,0,0,1-4.8,3c-3,0-5.3-2-5.3-7s2.4-7,5.3-7,4.9,4.1,4.7,7.3h-8Zm6-1.6c0-1.7-.9-4.2-2.8-4.2s-3.1,2.3-3.1,4.2h6Z" transform="translate(-181 -389.8)"/><path class="cls-1" d="M412.2,408.8h-2.7l-3.8-13.2h1.8l3.4,11.5,3.3-11.5H416Z" transform="translate(-181 -389.8)"/><path class="cls-1" d="M421.3,402.5c0,3.8,1.6,5.1,3.5,5.1a4.1,4.1,0,0,0,3.2-2.3l1.3,0.9a5.1,5.1,0,0,1-4.8,3c-3,0-5.3-2-5.3-7s2.4-7,5.3-7,4.9,4.1,4.7,7.3h-8Zm6-1.6c0-1.7-.9-4.2-2.8-4.2s-3.1,2.3-3.1,4.2h6Z" transform="translate(-181 -389.8)"/><path class="cls-2" d="M186.5,418.3c4.7,0,6.1,3,6.1,5.1s-1.3,5.2-6.4,5.2h-2.9V437h-2V418.3h5.1Zm-3.2,8.6H185c2.6,0,5.7-.1,5.7-3.5s-3.4-3.5-6-3.5h-1.4v6.9Z" transform="translate(-181 -389.8)"/><path class="cls-1" d="M198.5,426.6h0c0.7-1.6,1.7-3,3.7-3h0.7v1.7c-2.4-.3-3.7,2.3-4.4,4.2V437h-1.9V423.7h1.9v2.9Z" transform="translate(-181 -389.8)"/><path class="cls-1" d="M206.1,430.4c0-5,2.4-7,5.3-7s5.3,2,5.3,7-2.4,7-5.3,7S206.1,435.3,206.1,430.4Zm8.7,0c0-2.3-.6-5.4-3.4-5.4s-3.4,3.2-3.4,5.4,0.6,5.4,3.4,5.4S214.8,432.6,214.8,430.4Z" transform="translate(-181 -389.8)"/><path class="cls-1" d="M223.4,441.1h-1.9V423.7h1.9v1.4a4.9,4.9,0,0,1,3.3-1.8c2.3,0,4.9,2.1,4.9,7.3s-3,6.7-4.8,6.7a4.3,4.3,0,0,1-3.4-1.9v5.6Zm0-7.8c0.5,1.1,1.8,2.5,3.1,2.5s3.1-1.3,3.1-5.2c0-2-.6-5.6-3.2-5.6a3.5,3.5,0,0,0-3.1,2.1v6.1Z" transform="translate(-181 -389.8)"/><path class="cls-1" d="M243.5,437l-0.2-1.7c-1.1,1.1-2.3,2.1-3.8,2.1a3.7,3.7,0,0,1-3.7-3.8c0-3.8,4-4.6,6.9-5.4l0.6-.2v-0.7a2.2,2.2,0,0,0-2.5-2.3,4,4,0,0,0-3.2,2.1l-1.3-1a5.5,5.5,0,0,1,4.6-2.7,4.1,4.1,0,0,1,4.4,4.1v6.6a8.1,8.1,0,0,0,.4,2.9h-2Zm-0.9-7.2c-1.8.5-5,1.2-5,3.6a2.2,2.2,0,0,0,2,2.2,5.2,5.2,0,0,0,3.8-2.2v-3.9Z" transform="translate(-181 -389.8)"/><path class="cls-1" d="M261.1,424.9h-0.7a2.4,2.4,0,0,0-1.3.3,4.8,4.8,0,0,1,.8,2.7,4.4,4.4,0,0,1-4.5,4.6,5.8,5.8,0,0,1-2.1-.4,2.2,2.2,0,0,0-1.1,1.4c0,1.7,8.8-.4,8.8,4.6,0,1-.3,3.5-5.6,3.5s-5.7-1.7-5.7-3.3,1.2-2.1,2.3-2.6a2.2,2.2,0,0,1-1.7-1.8c0-1.2.9-1.5,1.7-2.4a4.7,4.7,0,0,1-1.5-3.5,4.5,4.5,0,0,1,4.7-4.6,4.8,4.8,0,0,1,2.9.9,4.3,4.3,0,0,1,3-1v1.7ZM254,436.2c-1,.2-2.5.8-2.5,2s2.7,1.9,4,1.9,3.7-.3,3.7-2.1-2.2-1.6-3.2-1.6Zm1.3-11.4a3,3,0,0,0-2.9,3.2,2.9,2.9,0,1,0,5.7,0C258.1,426.2,257.2,424.8,255.3,424.8Z" transform="translate(-181 -389.8)"/><path class="cls-1" d="M272.5,437l-0.2-1.7c-1.1,1.1-2.3,2.1-3.8,2.1a3.7,3.7,0,0,1-3.7-3.8c0-3.8,4-4.6,6.9-5.4l0.6-.2v-0.7a2.2,2.2,0,0,0-2.5-2.3,4,4,0,0,0-3.2,2.1l-1.3-1a5.5,5.5,0,0,1,4.6-2.7,4.1,4.1,0,0,1,4.4,4.1v6.6a8.1,8.1,0,0,0,.4,2.9h-2Zm-0.9-7.2c-1.8.5-5,1.2-5,3.6a2.2,2.2,0,0,0,2,2.2,5.2,5.2,0,0,0,3.8-2.2v-3.9Z" transform="translate(-181 -389.8)"/><path class="cls-1" d="M281.6,437h-1.9V423.7h1.9v1.4c1.1-.9,2.1-1.8,3.6-1.8s3.4,1,3.4,4.5V437h-1.9v-8.7c0-1.4.2-3.4-1.8-3.4a5.6,5.6,0,0,0-3.4,2V437Z" transform="translate(-181 -389.8)"/><path class="cls-1" d="M301.2,418.3h1.9V437h-1.9v-1.5a4.3,4.3,0,0,1-3.4,1.9c-1.8,0-4.8-1.7-4.8-6.7s2.6-7.3,4.9-7.3a4.9,4.9,0,0,1,3.3,1.8v-6.8Zm0,8.8a3.5,3.5,0,0,0-3.1-2.1c-2.6,0-3.2,3.6-3.2,5.6,0,3.9,1.8,5.2,3.1,5.2s2.6-1.3,3.1-2.5v-6.1Z" transform="translate(-181 -389.8)"/><path class="cls-1" d="M315.3,437l-0.2-1.7c-1.1,1.1-2.3,2.1-3.8,2.1a3.7,3.7,0,0,1-3.7-3.8c0-3.8,4-4.6,6.9-5.4l0.6-.2v-0.7a2.2,2.2,0,0,0-2.5-2.3,4,4,0,0,0-3.2,2.1l-1.3-1a5.5,5.5,0,0,1,4.6-2.7,4.1,4.1,0,0,1,4.4,4.1v6.6a8,8,0,0,0,.4,2.9h-2Zm-0.9-7.2c-1.8.5-5,1.2-5,3.6a2.2,2.2,0,0,0,2,2.2,5.2,5.2,0,0,0,3.8-2.2v-3.9Z" transform="translate(-181 -389.8)"/><path class="cls-1" d="M334.3,437h-2.7l-3.8-13.2h1.8l3.4,11.5,3.3-11.5H338Z" transform="translate(-181 -389.8)"/><path class="cls-1" d="M348.4,437l-0.2-1.7c-1.1,1.1-2.3,2.1-3.8,2.1a3.7,3.7,0,0,1-3.7-3.8c0-3.8,4-4.6,6.9-5.4l0.6-.2v-0.7a2.2,2.2,0,0,0-2.5-2.3,4,4,0,0,0-3.2,2.1l-1.3-1a5.4,5.4,0,0,1,4.6-2.7,4.1,4.1,0,0,1,4.4,4.1v6.6a8.1,8.1,0,0,0,.4,2.9h-2Zm-0.9-7.2c-1.8.5-5,1.2-5,3.6a2.2,2.2,0,0,0,2,2.2,5.2,5.2,0,0,0,3.8-2.2v-3.9Z" transform="translate(-181 -389.8)"/><path class="cls-1" d="M357.2,437h-1.9V423.7h1.9v1.4c1.1-.9,2.1-1.8,3.6-1.8s3.4,1,3.4,4.5V437h-1.9v-8.7c0-1.4.2-3.4-1.8-3.4a5.6,5.6,0,0,0-3.4,2V437Z" transform="translate(-181 -389.8)"/><path class="cls-1" d="M377.6,425.1c1.1-.9,2.1-1.8,3.6-1.8s3.4,1,3.4,4.5V437h-1.9v-8.7c0-1.4.2-3.4-1.8-3.4a5.6,5.6,0,0,0-3.4,2V437h-1.9V418.3h1.9v6.8Z" transform="translate(-181 -389.8)"/><path class="cls-1" d="M391.1,430.7c0,3.8,1.6,5.1,3.5,5.1a4.1,4.1,0,0,0,3.2-2.3l1.3,0.9a5.1,5.1,0,0,1-4.8,3c-3,0-5.3-2-5.3-7s2.4-7,5.3-7,4.9,4.1,4.7,7.3h-8Zm6-1.6c0-1.7-.9-4.2-2.8-4.2s-3.1,2.3-3.1,4.2h6Z" transform="translate(-181 -389.8)"/><path class="cls-1" d="M406.2,423.7h3v1.6h-3v8.3c0,1.3,0,2.1,1.5,2.1l1.5-.2V437a5.5,5.5,0,0,1-1.9.4c-3.2,0-3-2.1-3-4.6v-7.5h-2v-1.6h2v-4.3h1.9v4.3Z" transform="translate(-181 -389.8)"/><path class="cls-2" d="M183.3,465.1h-2V446.5h3.1l7.4,14.7h0V446.5h2v18.7h-2l-8.6-17h0v17Z" transform="translate(-181 -389.8)"/><path class="cls-1" d="M201.7,458.8c0,3.8,1.6,5.1,3.5,5.1a4.1,4.1,0,0,0,3.2-2.3l1.3,0.9a5.1,5.1,0,0,1-4.8,3c-3,0-5.3-2-5.3-7s2.4-7,5.3-7,4.9,4.1,4.7,7.3h-8Zm6-1.6c0-1.7-.9-4.2-2.8-4.2s-3.1,2.3-3.1,4.2h6Z" transform="translate(-181 -389.8)"/><path class="cls-1" d="M222.2,446.5H224v18.7h-1.9v-1.5a4.3,4.3,0,0,1-3.4,1.9c-1.8,0-4.8-1.7-4.8-6.7s2.6-7.3,4.9-7.3a4.9,4.9,0,0,1,3.3,1.8v-6.8Zm0,8.8a3.5,3.5,0,0,0-3.1-2.1c-2.6,0-3.2,3.6-3.2,5.6,0,3.9,1.8,5.2,3.1,5.2s2.6-1.3,3.1-2.5v-6.1Z" transform="translate(-181 -389.8)"/><path class="cls-1" d="M231.5,458.8c0,3.8,1.6,5.1,3.5,5.1a4.1,4.1,0,0,0,3.2-2.3l1.3,0.9a5.1,5.1,0,0,1-4.8,3c-3,0-5.3-2-5.3-7s2.4-7,5.3-7,4.9,4.1,4.7,7.3h-8Zm6-1.6c0-1.7-.9-4.2-2.8-4.2s-3.1,2.3-3.1,4.2h6Z" transform="translate(-181 -389.8)"/><path class="cls-1" d="M246.3,454.7h0c0.7-1.6,1.7-3,3.7-3h0.7v1.7c-2.4-.3-3.7,2.3-4.4,4.2v7.5h-1.9V451.9h1.9v2.9Z" transform="translate(-181 -389.8)"/><path class="cls-1" d="M258.2,465.1h-1.9V446.5h1.9v18.7Z" transform="translate(-181 -389.8)"/><path class="cls-1" d="M271.3,465.1l-0.2-1.7c-1.1,1.1-2.3,2.1-3.8,2.1a3.7,3.7,0,0,1-3.7-3.8c0-3.8,4-4.6,6.9-5.4l0.6-.2v-0.7a2.2,2.2,0,0,0-2.5-2.3,4,4,0,0,0-3.2,2.1l-1.3-1a5.5,5.5,0,0,1,4.6-2.7,4.1,4.1,0,0,1,4.4,4.1v6.6a8.1,8.1,0,0,0,.4,2.9h-2Zm-0.9-7.2c-1.8.5-5,1.2-5,3.6a2.2,2.2,0,0,0,2,2.2,5.2,5.2,0,0,0,3.8-2.2v-3.9Z" transform="translate(-181 -389.8)"/><path class="cls-1" d="M280.7,465.1h-1.9V451.9h1.9v1.4c1.1-.9,2.1-1.8,3.6-1.8s3.4,1,3.4,4.5v9.1h-1.9v-8.7c0-1.4.2-3.4-1.8-3.4a5.6,5.6,0,0,0-3.4,2v10.1Z" transform="translate(-181 -389.8)"/><path class="cls-1" d="M300.7,446.5h1.9v18.7h-1.9v-1.5a4.3,4.3,0,0,1-3.4,1.9c-1.8,0-4.8-1.7-4.8-6.7s2.6-7.3,4.9-7.3a4.9,4.9,0,0,1,3.3,1.8v-6.8Zm0,8.8a3.5,3.5,0,0,0-3.1-2.1c-2.6,0-3.2,3.6-3.2,5.6,0,3.9,1.8,5.2,3.1,5.2s2.6-1.3,3.1-2.5v-6.1Z" transform="translate(-181 -389.8)"/><path class="cls-1" d="M315.3,454.8a3.4,3.4,0,0,0-3-1.8c-1.2,0-2.4.6-2.4,2,0,3.2,7,1.8,7,6.3a4,4,0,0,1-4.3,4.2,5.4,5.4,0,0,1-4.9-2.8l1.5-.9a3.7,3.7,0,0,0,3.5,2.1,2.3,2.3,0,0,0,2.6-2.3c0-3.3-7-1.8-7-6.5a3.8,3.8,0,0,1,4.1-3.7,5.1,5.1,0,0,1,4.4,2.3Z" transform="translate(-181 -389.8)"/><path class="cls-1" d="M322.7,458.8c0,3.8,1.6,5.1,3.5,5.1a4.1,4.1,0,0,0,3.2-2.3l1.3,0.9a5.1,5.1,0,0,1-4.8,3c-3,0-5.3-2-5.3-7s2.4-7,5.3-7,4.9,4.1,4.7,7.3h-8Zm6-1.6c0-1.7-.9-4.2-2.8-4.2s-3.1,2.3-3.1,4.2h6Z" transform="translate(-181 -389.8)"/><path class="cls-2" d="M343.5,465.1V446.5h5.1c4.8,0,6,2.7,6,4.8a4,4,0,0,1-3.1,4,4.6,4.6,0,0,1,3.5,4.6c0,2.2-1,5.2-6.2,5.2h-5.4Zm3.7-10.6c2.4,0,5.5,0,5.5-3.2s-2.9-3.1-5.3-3.1h-1.9v6.4h1.8Zm-1.8,9h2.3c4.5,0,5.3-1.4,5.3-3.4s-1-3.9-5.1-3.9h-2.5v7.3Z" transform="translate(-181 -389.8)"/><path class="cls-1" d="M359.2,458.5c0-5,2.4-7,5.3-7s5.3,2,5.3,7-2.4,7-5.3,7S359.2,463.5,359.2,458.5Zm8.7,0c0-2.3-.6-5.4-3.4-5.4s-3.4,3.2-3.4,5.4,0.6,5.4,3.4,5.4S368,460.8,368,458.5Z" transform="translate(-181 -389.8)"/><path class="cls-1" d="M376,458.8c0,3.8,1.6,5.1,3.5,5.1a4.1,4.1,0,0,0,3.2-2.3l1.3,0.9a5.1,5.1,0,0,1-4.8,3c-3,0-5.3-2-5.3-7s2.4-7,5.3-7,4.9,4.1,4.7,7.3h-8Zm6-1.6c0-1.7-.9-4.2-2.8-4.2s-3.1,2.3-3.1,4.2h6Z" transform="translate(-181 -389.8)"/><path class="cls-1" d="M390.5,458l4.9-6.1h2.1l-3.6,4.5,4.2,8.7h-2l-3.4-7.2-2.2,2.7v4.5h-1.9V446.5h1.9V458Z" transform="translate(-181 -389.8)"/></svg>