<svg id="Design" xmlns="http://www.w3.org/2000/svg" viewBox="0 0 18 18"><defs><style>.cls-1{fill:#fff;}</style></defs><title>icon-cart</title><path class="cls-1" d="M1852.4,51.1a2,2,0,1,0,2-2A2,2,0,0,0,1852.4,51.1Zm-10,0a2,2,0,1,0,2-2A2,2,0,0,0,1842.4,51.1Zm3.5-4.8,11.1-3.2a0.6,0.6,0,0,0,.4-0.5V37.1h-14V35.5a0.4,0.4,0,0,0-.4-0.4h-3.2a0.4,0.4,0,0,0-.4.4v1.6h2l1.9,9v2.6a0.4,0.4,0,0,0,.4.4H1857a0.4,0.4,0,0,0,.4-0.4V47.1h-11.2C1845,47.1,1844.9,46.6,1845.9,46.3Z" transform="translate(-1839.4 -35.1)"/></svg>