<svg id="Design" xmlns="http://www.w3.org/2000/svg" viewBox="0 0 25.1 16.1"><defs><style>.cls-1{fill:#fff;}</style></defs><title>icon-mail-white</title><path class="cls-1" d="M1380.2,2610.9l10.4,5.6a3,3,0,0,0,2.5,0l10.4-5.6c0.7-.4,1.3-1.5.1-1.5h-23.5C1378.9,2609.3,1379.5,2610.5,1380.2,2610.9Zm23.7,2.8-10.7,5.6a3,3,0,0,1-2.5,0l-10.7-5.6c-0.5-.3-0.5,0-0.5.3v10.2a1.6,1.6,0,0,0,1.4,1.3H1403a1.6,1.6,0,0,0,1.4-1.3v-10.2C1404.4,2613.7,1404.4,2613.4,1403.9,2613.6Z" transform="translate(-1379.4 -2609.3)"/></svg>