<svg id="Design" xmlns="http://www.w3.org/2000/svg" viewBox="0 0 21.2 21.2"><defs><style>.cls-1{fill:#fff;}</style></defs><title>icon-whatsapp-white</title><path class="cls-1" d="M1635.3,2605.6h1.9l2.1,0.4a10.4,10.4,0,0,1,7.2,9.4,10,10,0,0,1-.1,2.1,9.9,9.9,0,0,1-1.1,3.3,10.4,10.4,0,0,1-3,3.4,10.6,10.6,0,0,1-3.3,1.6,10.5,10.5,0,0,1-3.9.4,9.5,9.5,0,0,1-3.6-1,1.1,1.1,0,0,0-.9-0.1l-5.3,1.7h0l0.4-1.2,1.3-3.9a0.6,0.6,0,0,0-.1-0.6l-0.3-.6a10.3,10.3,0,0,1-.9-3.2,10.5,10.5,0,0,1,0-2.3,10,10,0,0,1,.7-2.8,10.1,10.1,0,0,1,1.7-2.8,10.3,10.3,0,0,1,3.7-2.8,9.4,9.4,0,0,1,2.6-.8Zm-4,17.6,1.5,0.8a8.6,8.6,0,0,0,5.1.5,8.7,8.7,0,0,0,6.9-10,8.7,8.7,0,0,0-5.1-6.5,8.5,8.5,0,0,0-2.7-.7,8.8,8.8,0,0,0-3.9.5,8.6,8.6,0,0,0-3.6,2.6,8.5,8.5,0,0,0-2,5.4,8.3,8.3,0,0,0,.8,3.8l0.8,1.4-0.5,1.5c-0.2.5-.4,1-0.5,1.6Z" transform="translate(-1625.4 -2605.6)"/><path class="cls-1" d="M1639,2620.8h-0.7l-2-.7a8.9,8.9,0,0,1-3.4-2.8l-1.1-1.6a3.7,3.7,0,0,1-.6-1.9,2.9,2.9,0,0,1,.9-2.1,0.9,0.9,0,0,1,.7-0.3h0.3a0.6,0.6,0,0,1,.7.5l0.8,1.9a0.6,0.6,0,0,1,0,.6l-0.5.7c-0.3.3-.3,0.4,0,0.8a6.9,6.9,0,0,0,3.3,2.8,0.5,0.5,0,0,0,.7-0.2l0.6-.8c0.3-.4.4-0.4,0.8-0.2l1.8,0.9a0.5,0.5,0,0,1,.3.5,1.9,1.9,0,0,1-.8,1.6A3.2,3.2,0,0,1,1639,2620.8Z" transform="translate(-1625.4 -2605.6)"/></svg>