<svg id="Design" xmlns="http://www.w3.org/2000/svg" viewBox="0 0 19.8 16.1"><defs><style>.cls-1{fill:#ffffff;}</style></defs><title>icon-twitter-grey</title><path id="twit" class="cls-1" d="M2111.4,6204.9a8.2,8.2,0,0,1-2.3.6,4.1,4.1,0,0,0,1.8-2.3,8.2,8.2,0,0,1-2.6,1,4.1,4.1,0,0,0-6.9,3.7,11.6,11.6,0,0,1-8.4-4.3,4.1,4.1,0,0,0,1.3,5.4,4.1,4.1,0,0,1-1.8-.5h0a4.1,4.1,0,0,0,3.3,4h-1.8a4.1,4.1,0,0,0,3.8,2.8,8.2,8.2,0,0,1-5.1,1.7h-1a11.6,11.6,0,0,0,17.8-9.8q0-.3,0-0.5A8.3,8.3,0,0,0,2111.4,6204.9Z" transform="translate(-2091.5 -6203)"/></svg>