<svg id="Design" xmlns="http://www.w3.org/2000/svg" viewBox="0 0 15.8 15.8"><defs><style>.cls-1{fill:#fff;}</style></defs><title>icon-search</title><path class="cls-1" d="M826.6,71.4l-3.8-3.8a6.1,6.1,0,0,0,.9-3.2,6.5,6.5,0,0,0-6.4-6.4,6.2,6.2,0,0,0-6.2,6.2,6.5,6.5,0,0,0,6.4,6.4,6.1,6.1,0,0,0,3.1-.8l3.8,3.8a1,1,0,0,0,1.3,0l0.9-.9A0.8,0.8,0,0,0,826.6,71.4Zm-13.5-7.2a4.3,4.3,0,0,1,4.3-4.3,4.6,4.6,0,0,1,4.5,4.5,4.3,4.3,0,0,1-4.3,4.3A4.6,4.6,0,0,1,813.1,64.2Z" transform="translate(-811.2 -58)"/></svg>