<svg id="Design" xmlns="http://www.w3.org/2000/svg" viewBox="0 0 19.5 16.9"><defs><style>.cls-1{fill:#fff;}</style></defs><title>icon-print-white</title><path class="cls-1" d="M855.5,2336.2h16.9a0.4,0.4,0,0,0,.2-0.7,33.1,33.1,0,0,0-4-1.3h-0.9v-3h-7.6v3h-0.9a33.1,33.1,0,0,0-4,1.3A0.4,0.4,0,0,0,855.5,2336.2Zm17.1,1.1H855.3a1.3,1.3,0,0,0-1.1,1.2v3.5a1.3,1.3,0,0,0,1.1,1.2h2l-0.9,5h15.1l-0.9-5h2a1.3,1.3,0,0,0,1.1-1.2v-3.5A1.3,1.3,0,0,0,872.6,2337.3Zm-14.2,8.8,1.4-6.5h8.3l1.4,6.5H858.4Z" transform="translate(-854.2 -2331.2)"/></svg>