<svg xmlns="http://www.w3.org/2000/svg" viewBox="0 0 35.8 29.1"><defs><style>.cls-1{fill:#fff;}</style></defs><path class="cls-1" d="M2366.7,1575.2a14.7,14.7,0,0,1-4.2,1.2,7.4,7.4,0,0,0,3.2-4.1,14.8,14.8,0,0,1-4.7,1.8,7.4,7.4,0,0,0-12.5,6.7,20.9,20.9,0,0,1-15.2-7.7,7.4,7.4,0,0,0,2.3,9.8,7.3,7.3,0,0,1-3.3-.9h0a7.4,7.4,0,0,0,5.9,7.2l-1.9.3h-1.4a7.4,7.4,0,0,0,6.9,5.1,14.7,14.7,0,0,1-9.1,3.1h-1.8a20.8,20.8,0,0,0,11.3,3.3c13.5,0,20.9-11.2,20.9-20.9q0-.5,0-1A14.9,14.9,0,0,0,2366.7,1575.2Z" transform="translate(-2330.8 -1571.8)"/></svg>