<svg id="Design" xmlns="http://www.w3.org/2000/svg" viewBox="0 0 141.6 162.8"><defs><style>.cls-1{fill:#fff;}</style></defs><title>participant-logo</title><path class="cls-1" d="M565.8,3187.2l23.4-22.1c1.2-1.2,2.3-2.8,3.8-3.4s5.2-2.3,7-1.5,3.4,4,3.5,6.2c0.3,15,.2,29.9.2,44.9,0,1.8,0,3.7,0,6.8l5.7-5.2,15.7-14.3c4.4-4,6.8-4.1,11.2-.2l18.6,16.7,3.2,2.6c0-5,0-9,0-13.1,0-10.7,0-21.3,0-32,0-1.6-.1-3.7-1.1-4.7-8.6-9.4-17.5-18.6-26.6-28.2L614.2,3155a27.1,27.1,0,0,1-3.4,3.1c-2.8,1.9-5.6,1.7-7.9-.8s-2.3-5.3,0-7.5c7.8-7.9,15.7-15.7,23.9-23.2,2.4-2.3,5.6-1.7,7.9.7,11.1,11.6,22.2,23.2,33.1,35a8.8,8.8,0,0,1,1.8,5.5c0.1,20.7.2,41.4-.1,62.1,0,2.2-1.6,5.7-3.2,6.3s-5.6-.1-7.3-1.6c-9.5-8.1-18.7-16.6-28.2-25.2l-25.4,23.2-1.7,1.6c-2.3,2.2-4.5,4.3-8.1,2.8s-3.7-4.9-3.7-8.2q0-22,0-44c0-1.5,0-3,0-5.8-6.2,5.8-11.6,10.8-16.8,15.9-8.9,8.6-9.3,8.6-18.1.2l-16.7-15.7a37.3,37.3,0,0,0-.5,4.1c0,13.7,0,27.5,0,41.2,0,4.1.9,7.5,4.3,10.5,8.1,7.1,15.7,14.8,24,22.9l13.7-13.9a26.3,26.3,0,0,1,3.8-3.4c2.6-1.8,5.4-1.6,7.5.8s2.5,5.2.3,7.5c-7.1,7.3-14.2,14.7-21.7,21.5-1.4,1.2-5.9,1.1-7.3-.1-11.2-10.1-22.2-20.5-32.7-31.4-2.3-2.4-3.2-7.1-3.3-10.7-0.3-20.7-.3-41.4,0-62.1,0-2.1,1.8-5.6,3.4-6.1s5.6,0.4,7.3,1.9C548,3170.1,556.7,3178.6,565.8,3187.2Z" transform="translate(-528 -3117.1)"/><path class="cls-1" d="M567,3117.1a25.5,25.5,0,0,1,24.7,18,26.1,26.1,0,0,1-10,29c-4.1,2.8-7.6,2.6-9.7-.6s-1.2-5.9,2.7-9c7.3-5.6,8.5-14.6,2.9-21s-14.9-6.7-20.8-.5-5.2,15.3,1.9,21.1c3.9,3.2,4.8,6.5,2.5,9.4s-5.8,2.9-9.8-.1a25.8,25.8,0,0,1-8.9-28.9A25.3,25.3,0,0,1,567,3117.1Z" transform="translate(-528 -3117.1)"/><path class="cls-1" d="M604.7,3253.8a24.7,24.7,0,0,1,10.7-20.9c4-2.9,7.6-2.8,9.8.1s1.2,6.3-2.7,9.3c-5.7,4.2-7.7,10.5-5.3,16.7a14.5,14.5,0,0,0,14.2,9.1,14.3,14.3,0,0,0,12.9-11.5c1.2-5.9-1.1-10.5-5.6-14.2s-4.7-6.4-2.4-9.4,5.7-2.8,9.5,0a26,26,0,0,1,8.4,31.4c-4.9,11.2-17,17.3-29.4,14.8S604.7,3266.3,604.7,3253.8Z" transform="translate(-528 -3117.1)"/></svg>